<svg width="156" height="40" viewBox="0 0 156 40" fill="none" xmlns="http://www.w3.org/2000/svg">
<g clip-path="url(#clip0_1_106)">
<path d="M58.9465 12.5125V28H56.1745V20.44L57.424 21.385H48.877L50.1265 20.461V28H47.3545V12.5125H50.1265V20.146L48.877 19.18H57.424L56.1745 20.1355V12.5125H58.9465ZM71.5709 14.7175H66.6674L67.6859 13.342V28H64.9139V13.342L65.9849 14.7175H61.0394V12.5125H71.5709V14.7175ZM84.649 12.5125H89.353V28H86.7175V14.2765L86.7805 14.2975L83.452 28H79.756L76.3855 14.287L76.4485 14.2555V28H73.813V12.5125H78.517L81.6565 26.488H81.478L84.649 12.5125ZM92.2051 28V12.5125H94.9771V27.1705L93.7276 25.711H100.847V28H92.2051ZM112.315 23.3485H109.123V25.9H107.37V23.3485H104.178V21.616H107.37V19.054H109.123V21.616H112.315V23.3485ZM128.452 22.4245C128.452 23.0825 128.33 23.751 128.085 24.43C127.84 25.109 127.465 25.739 126.961 26.32C126.464 26.894 125.834 27.356 125.071 27.706C124.308 28.056 123.412 28.231 122.383 28.231C120.99 28.231 119.8 27.8915 118.813 27.2125C117.833 26.5265 117.084 25.585 116.566 24.388C116.055 23.191 115.8 21.8155 115.8 20.2615C115.8 18.7005 116.055 17.3215 116.566 16.1245C117.084 14.9275 117.833 13.9895 118.813 13.3105C119.8 12.6315 120.99 12.292 122.383 12.292C123.538 12.292 124.525 12.5125 125.344 12.9535C126.163 13.3945 126.818 13.9615 127.308 14.6545C127.798 15.3475 128.127 16.072 128.295 16.828C128.4 17.269 128.452 17.689 128.452 18.088H125.67C125.67 17.885 125.656 17.675 125.628 17.458C125.551 16.926 125.372 16.443 125.092 16.009C124.819 15.568 124.455 15.2215 124 14.9695C123.545 14.7105 123.006 14.581 122.383 14.581C121.641 14.581 120.987 14.7875 120.42 15.2005C119.86 15.6135 119.419 16.24 119.097 17.08C118.775 17.92 118.614 18.9805 118.614 20.2615C118.614 21.5285 118.775 22.5855 119.097 23.4325C119.419 24.2795 119.86 24.913 120.42 25.333C120.987 25.753 121.641 25.963 122.383 25.963C122.915 25.963 123.384 25.865 123.79 25.669C124.196 25.473 124.539 25.2105 124.819 24.8815C125.099 24.5455 125.309 24.1675 125.449 23.7475C125.596 23.3275 125.67 22.8865 125.67 22.4245H128.452ZM135.79 28.231C134.691 28.231 133.732 28.056 132.913 27.706C132.094 27.356 131.457 26.831 131.002 26.131C130.547 25.424 130.319 24.549 130.319 23.506C130.319 23.387 130.319 23.282 130.319 23.191C130.319 23.093 130.319 22.9845 130.319 22.8655H133.081C133.081 22.9705 133.081 23.0685 133.081 23.1595C133.081 23.2435 133.081 23.3415 133.081 23.4535C133.081 24.2935 133.308 24.9235 133.763 25.3435C134.225 25.7565 134.904 25.963 135.8 25.963C136.703 25.963 137.393 25.8125 137.869 25.5115C138.352 25.2105 138.593 24.7275 138.593 24.0625C138.593 23.5795 138.429 23.17 138.1 22.834C137.778 22.491 137.333 22.19 136.766 21.931C136.199 21.672 135.555 21.4305 134.834 21.2065C134.022 20.9545 133.284 20.629 132.619 20.23C131.954 19.831 131.422 19.327 131.023 18.718C130.624 18.109 130.424 17.36 130.424 16.471C130.424 15.582 130.652 14.826 131.107 14.203C131.569 13.58 132.199 13.1075 132.997 12.7855C133.802 12.4565 134.715 12.292 135.737 12.292C136.808 12.292 137.75 12.46 138.562 12.796C139.381 13.132 140.021 13.6325 140.483 14.2975C140.945 14.9625 141.176 15.792 141.176 16.786C141.176 16.919 141.176 17.0345 141.176 17.1325C141.176 17.2305 141.176 17.3425 141.176 17.4685H138.404C138.404 17.3775 138.404 17.2865 138.404 17.1955C138.404 17.0975 138.404 17.003 138.404 16.912C138.404 16.114 138.187 15.526 137.753 15.148C137.319 14.763 136.661 14.5705 135.779 14.5705C134.918 14.5705 134.257 14.721 133.795 15.022C133.333 15.323 133.102 15.8025 133.102 16.4605C133.102 16.9505 133.259 17.36 133.574 17.689C133.889 18.018 134.32 18.305 134.866 18.55C135.419 18.788 136.045 19.0295 136.745 19.2745C137.676 19.5825 138.481 19.9325 139.16 20.3245C139.839 20.7095 140.364 21.1925 140.735 21.7735C141.106 22.3475 141.292 23.079 141.292 23.968C141.292 24.878 141.061 25.6515 140.599 26.2885C140.144 26.9185 139.503 27.4015 138.677 27.7375C137.858 28.0665 136.896 28.231 135.79 28.231ZM148.628 28.231C147.529 28.231 146.57 28.056 145.751 27.706C144.932 27.356 144.295 26.831 143.84 26.131C143.385 25.424 143.157 24.549 143.157 23.506C143.157 23.387 143.157 23.282 143.157 23.191C143.157 23.093 143.157 22.9845 143.157 22.8655H145.919C145.919 22.9705 145.919 23.0685 145.919 23.1595C145.919 23.2435 145.919 23.3415 145.919 23.4535C145.919 24.2935 146.146 24.9235 146.601 25.3435C147.063 25.7565 147.742 25.963 148.638 25.963C149.541 25.963 150.231 25.8125 150.707 25.5115C151.19 25.2105 151.431 24.7275 151.431 24.0625C151.431 23.5795 151.267 23.17 150.938 22.834C150.616 22.491 150.171 22.19 149.604 21.931C149.037 21.672 148.393 21.4305 147.672 21.2065C146.86 20.9545 146.122 20.629 145.457 20.23C144.792 19.831 144.26 19.327 143.861 18.718C143.462 18.109 143.262 17.36 143.262 16.471C143.262 15.582 143.49 14.826 143.945 14.203C144.407 13.58 145.037 13.1075 145.835 12.7855C146.64 12.4565 147.553 12.292 148.575 12.292C149.646 12.292 150.588 12.46 151.4 12.796C152.219 13.132 152.859 13.6325 153.321 14.2975C153.783 14.9625 154.014 15.792 154.014 16.786C154.014 16.919 154.014 17.0345 154.014 17.1325C154.014 17.2305 154.014 17.3425 154.014 17.4685H151.242C151.242 17.3775 151.242 17.2865 151.242 17.1955C151.242 17.0975 151.242 17.003 151.242 16.912C151.242 16.114 151.025 15.526 150.591 15.148C150.157 14.763 149.499 14.5705 148.617 14.5705C147.756 14.5705 147.095 14.721 146.633 15.022C146.171 15.323 145.94 15.8025 145.94 16.4605C145.94 16.9505 146.097 17.36 146.412 17.689C146.727 18.018 147.158 18.305 147.704 18.55C148.257 18.788 148.883 19.0295 149.583 19.2745C150.514 19.5825 151.319 19.9325 151.998 20.3245C152.677 20.7095 153.202 21.1925 153.573 21.7735C153.944 22.3475 154.13 23.079 154.13 23.968C154.13 24.878 153.899 25.6515 153.437 26.2885C152.982 26.9185 152.341 27.4015 151.515 27.7375C150.696 28.0665 149.734 28.231 148.628 28.231Z" fill="black"/>
<path d="M3 20C3 10.6112 10.6112 3 20 3C29.3888 3 37 10.6112 37 20C37 29.3888 29.3888 37 20 37C10.6112 37 3 29.3888 3 20Z" fill="#39D7BA"/>
<path d="M15.724 24.7764C15.4792 24.7768 15.2429 24.6871 15.06 24.5244L10 20.0264L15.341 15.2784C15.5401 15.1081 15.798 15.0227 16.0594 15.0406C16.3208 15.0585 16.5647 15.1783 16.7387 15.3742C16.9127 15.57 17.0029 15.8264 16.9898 16.088C16.9768 16.3497 16.8616 16.5958 16.669 16.7734L13.01 20.0264L16.388 23.0284C16.5398 23.1631 16.647 23.3407 16.6954 23.5377C16.7438 23.7347 16.7312 23.9418 16.6591 24.1315C16.5871 24.3212 16.459 24.4844 16.292 24.5996C16.125 24.7148 15.9269 24.7765 15.724 24.7764ZM24.669 24.7744L30.01 20.0264L24.95 15.5284C24.7518 15.3523 24.4917 15.2622 24.227 15.2778C23.9622 15.2935 23.7146 15.4137 23.5385 15.6119C23.3624 15.8101 23.2723 16.0702 23.2879 16.3349C23.3036 16.5997 23.4238 16.8473 23.622 17.0234L27 20.0264L23.341 23.2784C23.1426 23.4545 23.0223 23.7022 23.0066 23.967C22.9908 24.2318 23.0809 24.492 23.257 24.6904C23.4331 24.8888 23.6808 25.0091 23.9456 25.0248C24.2104 25.0406 24.4706 24.9505 24.669 24.7744ZM19.991 26.1914L21.991 14.1914C22.0166 14.0603 22.0156 13.9253 21.9882 13.7945C21.9607 13.6638 21.9073 13.5398 21.8312 13.43C21.755 13.3203 21.6576 13.2268 21.5448 13.1553C21.4319 13.0838 21.3058 13.0356 21.174 13.0136C21.0423 12.9916 20.9074 12.9963 20.7774 13.0273C20.6474 13.0583 20.525 13.1151 20.4173 13.1942C20.3097 13.2733 20.2189 13.3732 20.1505 13.488C20.0821 13.6027 20.0374 13.7301 20.019 13.8624L18.019 25.8624C17.9934 25.9935 17.9944 26.1285 18.0218 26.2593C18.0493 26.39 18.1027 26.514 18.1788 26.6238C18.255 26.7335 18.3524 26.827 18.4652 26.8985C18.5781 26.97 18.7042 27.0182 18.836 27.0402C18.9677 27.0622 19.1026 27.0575 19.2326 27.0265C19.3626 26.9955 19.485 26.9388 19.5927 26.8596C19.7003 26.7805 19.7911 26.6806 19.8595 26.5658C19.9279 26.4511 19.9726 26.3237 19.991 26.1914Z" fill="white"/>
</g>
<defs>
<clipPath id="clip0_1_106">
<rect width="156" height="40" fill="white"/>
</clipPath>
</defs>
</svg>
