<svg width="175" height="40" viewBox="0 0 175 40" fill="none" xmlns="http://www.w3.org/2000/svg">
<g clip-path="url(#clip0_9715_16)">
<path d="M3 20C3 10.6112 10.6112 3 20 3V3C29.3888 3 37 10.6112 37 20V20C37 29.3888 29.3888 37 20 37V37C10.6112 37 3 29.3888 3 20V20Z" fill="#39D7BA"/>
<path fill-rule="evenodd" clip-rule="evenodd" d="M14.32 31.9015C13.8535 31.9122 13.3925 31.799 12.984 31.5735C11.552 30.7475 11.056 28.3655 11.657 25.2005C11.7312 24.861 11.8116 24.5231 11.898 24.187C11.6378 24.1166 11.3784 24.0424 11.12 23.9645C9.79062 23.5431 8.55073 22.8793 7.463 22.0065C7.04793 21.7084 6.70227 21.324 6.44974 20.8797C6.19721 20.4354 6.04379 19.9417 6 19.4325C6 17.7795 7.816 16.1595 10.858 15.0995C11.2083 14.9882 11.5606 14.8836 11.9144 14.7859C11.8337 14.4739 11.7583 14.1604 11.688 13.8455C11.3994 12.532 11.3459 11.1777 11.53 9.84547C11.5726 9.35128 11.7231 8.87245 11.9709 8.44274C12.2186 8.01303 12.5577 7.64291 12.964 7.35847C14.451 6.49747 16.974 7.38247 19.549 9.66847C19.7051 9.8159 19.8594 9.965 20.012 10.1157C20.2408 9.89124 20.4735 9.67044 20.71 9.45347C21.7031 8.54817 22.8488 7.82601 24.094 7.32047C24.5443 7.10941 25.0356 7 25.533 7C26.0303 7 26.5216 7.10941 26.972 7.32047C28.461 8.17847 28.954 10.8065 28.259 14.1795C28.2093 14.3878 28.1573 14.5956 28.103 14.8026C28.4107 14.8884 28.717 14.9794 29.022 15.0755C30.3023 15.4837 31.5001 16.1154 32.56 16.9415C32.968 17.2258 33.3084 17.5962 33.5573 18.0267C33.8061 18.4572 33.9573 18.9371 34 19.4325C34 21.1505 31.97 22.8915 28.7 23.9735C28.5199 24.0271 28.3393 24.0789 28.1583 24.1289C28.2254 24.3814 28.289 24.6349 28.349 24.8895C28.6502 26.2512 28.6966 27.6569 28.486 29.0355C28.4359 29.5439 28.2765 30.0354 28.0186 30.4765C27.7607 30.9175 27.4106 31.2975 26.992 31.5905C26.5902 31.8132 26.1364 31.925 25.677 31.9145C24.322 31.9145 22.601 31.0945 20.809 29.5535C20.5522 29.3198 20.2998 29.0816 20.052 28.8391C19.8598 29.0306 19.6648 29.2194 19.467 29.4055C18.4378 30.3463 17.2433 31.0884 15.944 31.5945C15.4238 31.7875 14.8747 31.8913 14.32 31.9015ZM19.2135 27.9839C19.0391 28.1577 18.8622 28.3293 18.683 28.4985C16.325 30.5585 14.383 30.9975 13.583 30.5345C12.811 30.0885 12.28 28.3355 12.833 25.4205C12.9033 25.104 12.9792 24.7889 13.0604 24.4755C14.2955 24.7544 15.5474 24.9503 16.8078 25.062C17.5444 26.0874 18.348 27.0635 19.2135 27.9839ZM20.8839 27.9745C21.1149 28.2014 21.35 28.4244 21.589 28.6435C23.838 30.5785 25.622 30.9945 26.389 30.5435C27.189 30.0785 27.779 28.1805 27.171 25.1095C27.1163 24.88 27.0586 24.6514 26.998 24.4236C25.7639 24.7099 24.5128 24.9143 23.2529 25.0358C22.5296 26.0665 21.7382 27.0483 20.8839 27.9745ZM27.8275 22.9807C27.9937 22.9349 28.1596 22.8875 28.325 22.8385C31.4 21.8195 32.8 20.3585 32.8 19.4325C32.7495 19.1147 32.6337 18.8109 32.4599 18.5401C32.2861 18.2694 32.058 18.0376 31.79 17.8595C30.8418 17.1267 29.7717 16.5668 28.629 16.2055C28.3458 16.1166 28.0614 16.0324 27.7758 15.9528C27.4113 17.14 26.9705 18.302 26.4564 19.4314C26.9921 20.5821 27.4502 21.7678 27.8275 22.9807ZM25.7701 20.8367C26.1068 21.6341 26.4054 22.4475 26.6649 23.2741C25.8217 23.4675 24.9704 23.6211 24.1137 23.7345C24.4036 23.269 24.6801 22.7948 24.943 22.3125C25.2333 21.8283 25.5091 21.3361 25.7701 20.8367ZM25.7595 18.0361C26.0816 17.257 26.3679 16.4631 26.6176 15.657C25.7866 15.4639 24.9474 15.3098 24.1027 15.1949C24.3945 15.6557 24.6734 16.125 24.939 16.6025C25.2266 17.0727 25.5002 17.5508 25.7595 18.0361ZM22.5624 15.0296C23.0409 15.7307 23.4873 16.4544 23.9 17.1985C24.3465 17.9267 24.7579 18.6746 25.1331 19.4395C24.7614 20.2135 24.3533 20.9707 23.91 21.7085C23.5024 22.4581 23.0604 23.1872 22.5856 23.8935C21.7264 23.9588 20.8636 23.984 20 23.9685C19.1548 23.9895 18.3102 23.971 17.4689 23.9135C16.9785 23.203 16.5206 22.4693 16.097 21.7145L16.098 21.7165C15.6587 20.9827 15.2544 20.2299 14.8863 19.4604C15.2533 18.6904 15.6559 17.9366 16.093 17.2015L16.1 17.2075C16.5163 16.46 16.9667 15.7335 17.4496 15.0299C18.2969 14.9637 19.148 14.9361 20 14.9475C20.8561 14.935 21.7112 14.9624 22.5624 15.0296ZM23.2241 13.8881C24.4769 14.012 25.7205 14.2184 26.9468 14.506C26.9969 14.3154 27.045 14.1242 27.091 13.9325C27.745 10.7575 27.18 8.81347 26.378 8.35147C26.0774 8.2363 25.7562 8.18474 25.4346 8.20006C25.1131 8.21538 24.7983 8.29724 24.51 8.44047C23.4017 8.89782 22.3827 9.5471 21.5 10.3585C21.2794 10.5614 21.0623 10.7678 20.8487 10.9775C21.7033 11.8953 22.4968 12.8676 23.2241 13.8881ZM20.0147 11.8331C20.5912 12.4555 21.1383 13.1039 21.6546 13.7762C21.1039 13.752 20.5522 13.7438 20 13.7515C19.4545 13.7433 18.9094 13.7507 18.3653 13.7735C18.8846 13.1018 19.435 12.4543 20.0147 11.8331ZM19.1784 10.9686C18.3173 11.8869 17.5179 12.8606 16.7852 13.8834C15.5363 14.0048 14.2964 14.208 13.0734 14.4916C12.9982 14.2012 12.9278 13.9095 12.862 13.6165C12.6018 12.4464 12.55 11.2396 12.709 10.0515C12.7289 9.73039 12.8152 9.41692 12.9623 9.13086C13.1095 8.8448 13.3144 8.59236 13.564 8.38948C14.365 7.92548 16.331 8.40647 18.755 10.5585C18.8977 10.6937 19.0388 10.8304 19.1784 10.9686ZM13.3999 15.6475C14.2261 15.4586 15.0602 15.3076 15.8996 15.1946C15.6055 15.657 15.3245 16.1281 15.057 16.6075C14.7761 17.0781 14.5089 17.5561 14.2558 18.0411C13.9339 17.2572 13.6482 16.4585 13.3999 15.6475ZM12.2386 15.9392C11.9079 16.0298 11.5786 16.1266 11.251 16.2295C8.451 17.2065 7.196 18.5425 7.196 19.4295C7.196 20.3575 8.545 21.8165 11.507 22.8295C11.744 22.9006 11.9818 22.9684 12.2204 23.033C12.589 21.8125 13.0383 20.6182 13.5651 19.4579C13.0466 18.3156 12.6034 17.1402 12.2386 15.9392ZM14.2579 20.8788C13.9298 21.6786 13.6389 22.4934 13.3862 23.3208C14.2263 23.5088 15.0745 23.6566 15.9279 23.764C15.6255 23.2905 15.3367 22.8078 15.062 22.3165C14.78 21.8446 14.5119 21.3652 14.2579 20.8788ZM18.3791 25.1574C18.9187 25.1752 19.4593 25.1776 20 25.1645C20.5649 25.1741 21.1295 25.1671 21.693 25.1435C21.1758 25.8262 20.6264 26.4844 20.0466 27.1158C19.4608 26.4887 18.9044 25.8352 18.3791 25.1574ZM22.5 19.4325C22.5 20.8132 21.3807 21.9325 20 21.9325C18.6193 21.9325 17.5 20.8132 17.5 19.4325C17.5 18.0518 18.6193 16.9325 20 16.9325C21.3807 16.9325 22.5 18.0518 22.5 19.4325Z" fill="white"/>
<path d="M54.262 28.231C53.065 28.231 52.099 28.014 51.364 27.58C50.636 27.139 50.1075 26.53 49.7785 25.753C49.4495 24.969 49.285 24.0555 49.285 23.0125C49.285 22.9005 49.285 22.7885 49.285 22.6765C49.285 22.5645 49.285 22.4525 49.285 22.3405H52.0255C52.0255 22.3965 52.0255 22.463 52.0255 22.54C52.0255 22.617 52.0255 22.6905 52.0255 22.7605C52.0255 23.3415 52.092 23.8735 52.225 24.3565C52.365 24.8395 52.596 25.228 52.918 25.522C53.24 25.816 53.688 25.963 54.262 25.963C54.829 25.963 55.27 25.816 55.585 25.522C55.9 25.228 56.1205 24.8255 56.2465 24.3145C56.3795 23.7965 56.446 23.212 56.446 22.561V12.5125H59.2075V22.939C59.2075 23.681 59.1235 24.3705 58.9555 25.0075C58.7945 25.6445 58.525 26.2045 58.147 26.6875C57.776 27.1705 57.272 27.5485 56.635 27.8215C55.998 28.0945 55.207 28.231 54.262 28.231ZM66.9636 28.231C65.8646 28.231 64.9056 28.056 64.0866 27.706C63.2676 27.356 62.6306 26.831 62.1756 26.131C61.7206 25.424 61.4931 24.549 61.4931 23.506C61.4931 23.387 61.4931 23.282 61.4931 23.191C61.4931 23.093 61.4931 22.9845 61.4931 22.8655H64.2546C64.2546 22.9705 64.2546 23.0685 64.2546 23.1595C64.2546 23.2435 64.2546 23.3415 64.2546 23.4535C64.2546 24.2935 64.4821 24.9235 64.9371 25.3435C65.3991 25.7565 66.0781 25.963 66.9741 25.963C67.8771 25.963 68.5666 25.8125 69.0426 25.5115C69.5256 25.2105 69.7671 24.7275 69.7671 24.0625C69.7671 23.5795 69.6026 23.17 69.2736 22.834C68.9516 22.491 68.5071 22.19 67.9401 21.931C67.3731 21.672 66.7291 21.4305 66.0081 21.2065C65.1961 20.9545 64.4576 20.629 63.7926 20.23C63.1276 19.831 62.5956 19.327 62.1966 18.718C61.7976 18.109 61.5981 17.36 61.5981 16.471C61.5981 15.582 61.8256 14.826 62.2806 14.203C62.7426 13.58 63.3726 13.1075 64.1706 12.7855C64.9756 12.4565 65.8891 12.292 66.9111 12.292C67.9821 12.292 68.9236 12.46 69.7356 12.796C70.5546 13.132 71.1951 13.6325 71.6571 14.2975C72.1191 14.9625 72.3501 15.792 72.3501 16.786C72.3501 16.919 72.3501 17.0345 72.3501 17.1325C72.3501 17.2305 72.3501 17.3425 72.3501 17.4685H69.5781C69.5781 17.3775 69.5781 17.2865 69.5781 17.1955C69.5781 17.0975 69.5781 17.003 69.5781 16.912C69.5781 16.114 69.3611 15.526 68.9271 15.148C68.4931 14.763 67.8351 14.5705 66.9531 14.5705C66.0921 14.5705 65.4306 14.721 64.9686 15.022C64.5066 15.323 64.2756 15.8025 64.2756 16.4605C64.2756 16.9505 64.4331 17.36 64.7481 17.689C65.0631 18.018 65.4936 18.305 66.0396 18.55C66.5926 18.788 67.2191 19.0295 67.9191 19.2745C68.8501 19.5825 69.6551 19.9325 70.3341 20.3245C71.0131 20.7095 71.5381 21.1925 71.9091 21.7735C72.2801 22.3475 72.4656 23.079 72.4656 23.968C72.4656 24.878 72.2346 25.6515 71.7726 26.2885C71.3176 26.9185 70.6771 27.4015 69.8511 27.7375C69.0321 28.0665 68.0696 28.231 66.9636 28.231ZM75.276 31.213L74.8875 30.52C75.2095 30.373 75.521 30.156 75.822 29.869C76.123 29.589 76.375 29.2845 76.578 28.9555C76.781 28.6335 76.8825 28.343 76.8825 28.084C76.8825 27.993 76.8685 27.902 76.8405 27.811C76.8125 27.72 76.7775 27.6395 76.7355 27.5695H77.397C77.313 27.7795 77.1625 27.9545 76.9455 28.0945C76.7355 28.2345 76.473 28.3045 76.158 28.3045C75.759 28.3045 75.4055 28.175 75.0975 27.916C74.7895 27.65 74.6355 27.272 74.6355 26.782C74.6355 26.32 74.7965 25.942 75.1185 25.648C75.4405 25.347 75.8535 25.1965 76.3575 25.1965C76.9105 25.1965 77.348 25.382 77.67 25.753C77.999 26.117 78.1635 26.5965 78.1635 27.1915C78.1635 27.7795 78.02 28.343 77.733 28.882C77.446 29.421 77.082 29.89 76.641 30.289C76.2 30.695 75.745 31.003 75.276 31.213ZM86.1533 28V12.5125H92.1173C93.6783 12.5125 94.8508 12.8695 95.6348 13.5835C96.4188 14.2975 96.8108 15.3475 96.8108 16.7335C96.8108 17.5455 96.6568 18.235 96.3488 18.802C96.0408 19.369 95.6663 19.8065 95.2253 20.1145C94.7843 20.4225 94.3643 20.5975 93.9653 20.6395C94.3713 20.6675 94.7633 20.7725 95.1413 20.9545C95.5193 21.1365 95.8273 21.4235 96.0653 21.8155C96.3103 22.2005 96.4328 22.722 96.4328 23.38C96.4328 23.905 96.4328 24.43 96.4328 24.955C96.4328 25.473 96.4328 25.9945 96.4328 26.5195C96.4328 26.8485 96.4608 27.153 96.5168 27.433C96.5728 27.706 96.6428 27.895 96.7268 28H93.9443C93.8743 27.874 93.8113 27.6815 93.7553 27.4225C93.7063 27.1565 93.6818 26.8555 93.6818 26.5195C93.6818 26.0435 93.6818 25.578 93.6818 25.123C93.6818 24.661 93.6818 24.1885 93.6818 23.7055C93.6818 23.0685 93.5033 22.5855 93.1463 22.2565C92.7893 21.9275 92.2503 21.763 91.5293 21.763H88.1168L88.8518 20.8285V28H86.1533ZM88.8518 20.5975L88.1168 19.558H91.5503C92.0053 19.558 92.4148 19.453 92.7788 19.243C93.1428 19.026 93.4298 18.725 93.6398 18.34C93.8568 17.955 93.9653 17.5035 93.9653 16.9855C93.9653 16.2295 93.7483 15.6625 93.3143 15.2845C92.8803 14.9065 92.2643 14.7175 91.4663 14.7175H88.0433L88.8518 13.741V20.5975ZM100.175 23.317V21.3535H107.976L107.661 21.8785C107.661 21.8365 107.661 21.791 107.661 21.742C107.661 21.686 107.661 21.6405 107.661 21.6055C107.661 21.1225 107.553 20.671 107.336 20.251C107.119 19.824 106.79 19.481 106.349 19.222C105.908 18.956 105.348 18.823 104.669 18.823C103.997 18.823 103.412 18.9665 102.915 19.2535C102.425 19.5335 102.044 19.9395 101.771 20.4715C101.505 21.0035 101.372 21.6405 101.372 22.3825C101.372 23.1455 101.501 23.8035 101.76 24.3565C102.019 24.9025 102.397 25.3225 102.894 25.6165C103.398 25.9035 104.011 26.047 104.732 26.047C105.222 26.047 105.645 26.0015 106.002 25.9105C106.359 25.8195 106.65 25.697 106.874 25.543C107.105 25.382 107.276 25.2105 107.388 25.0285C107.507 24.8465 107.577 24.6645 107.598 24.4825H110.349C110.307 24.9515 110.15 25.41 109.877 25.858C109.611 26.299 109.236 26.7015 108.753 27.0655C108.27 27.4225 107.682 27.7095 106.989 27.9265C106.303 28.1365 105.519 28.2415 104.637 28.2415C103.44 28.2415 102.394 27.9965 101.498 27.5065C100.602 27.0165 99.9018 26.334 99.3978 25.459C98.9008 24.584 98.6523 23.583 98.6523 22.456C98.6523 21.301 98.9043 20.2895 99.4083 19.4215C99.9193 18.5535 100.626 17.878 101.529 17.395C102.432 16.905 103.468 16.66 104.637 16.66C105.841 16.66 106.881 16.905 107.756 17.395C108.638 17.885 109.317 18.5675 109.793 19.4425C110.269 20.3105 110.507 21.322 110.507 22.477C110.507 22.624 110.503 22.7815 110.496 22.9495C110.489 23.1175 110.479 23.24 110.465 23.317H100.175ZM116.605 28.231C115.772 28.231 115.041 28.1015 114.411 27.8425C113.781 27.5765 113.287 27.195 112.93 26.698C112.573 26.201 112.395 25.6025 112.395 24.9025C112.395 24.1395 112.601 23.513 113.014 23.023C113.434 22.526 113.998 22.1445 114.705 21.8785C115.412 21.6055 116.196 21.4305 117.057 21.3535C118.331 21.2275 119.22 21.1085 119.724 20.9965C120.235 20.8775 120.49 20.6885 120.49 20.4295C120.49 20.4225 120.49 20.419 120.49 20.419C120.49 20.412 120.49 20.4085 120.49 20.4085C120.49 19.9185 120.27 19.5405 119.829 19.2745C119.388 19.0085 118.765 18.8755 117.96 18.8755C117.113 18.8755 116.462 19.026 116.007 19.327C115.559 19.621 115.335 20.09 115.335 20.734H112.605C112.605 19.859 112.836 19.1205 113.298 18.5185C113.767 17.9095 114.407 17.4475 115.219 17.1325C116.031 16.8175 116.952 16.66 117.981 16.66C118.94 16.66 119.818 16.8035 120.616 17.0905C121.414 17.3775 122.055 17.8115 122.538 18.3925C123.021 18.9735 123.262 19.698 123.262 20.566C123.262 20.713 123.262 20.86 123.262 21.007C123.262 21.154 123.262 21.301 123.262 21.448V25.648C123.262 25.914 123.269 26.1765 123.283 26.4355C123.304 26.6875 123.343 26.915 123.399 27.118C123.469 27.342 123.553 27.531 123.651 27.685C123.749 27.839 123.826 27.944 123.882 28H121.152C121.103 27.951 121.033 27.8565 120.942 27.7165C120.858 27.5695 120.781 27.4015 120.711 27.2125C120.641 27.0025 120.588 26.7785 120.553 26.5405C120.518 26.2955 120.501 26.026 120.501 25.732L121.047 26.11C120.837 26.537 120.515 26.9115 120.081 27.2335C119.654 27.5485 119.143 27.7935 118.548 27.9685C117.953 28.1435 117.305 28.231 116.605 28.231ZM117.277 26.0575C117.851 26.0575 118.383 25.9595 118.873 25.7635C119.363 25.5675 119.759 25.2665 120.06 24.8605C120.361 24.4475 120.511 23.919 120.511 23.275V21.784L121.183 22.54C120.735 22.708 120.196 22.848 119.566 22.96C118.936 23.065 118.299 23.149 117.655 23.212C116.829 23.289 116.206 23.4325 115.786 23.6425C115.373 23.8525 115.167 24.1955 115.167 24.6715C115.167 25.1335 115.342 25.48 115.692 25.711C116.042 25.942 116.57 26.0575 117.277 26.0575ZM131.339 28.231C130.163 28.231 129.123 27.9895 128.22 27.5065C127.317 27.0235 126.61 26.3445 126.099 25.4695C125.588 24.5945 125.333 23.569 125.333 22.393C125.333 21.224 125.588 20.209 126.099 19.348C126.61 18.487 127.317 17.8255 128.22 17.3635C129.123 16.8945 130.163 16.66 131.339 16.66C132.221 16.66 133.001 16.7895 133.68 17.0485C134.359 17.3075 134.93 17.654 135.392 18.088C135.861 18.515 136.218 18.9875 136.463 19.5055C136.708 20.0165 136.83 20.5275 136.83 21.0385C136.83 21.0525 136.83 21.0665 136.83 21.0805C136.83 21.0945 136.83 21.1085 136.83 21.1225H134.09C134.09 21.0875 134.086 21.049 134.079 21.007C134.072 20.965 134.065 20.923 134.058 20.881C134.002 20.524 133.859 20.202 133.628 19.915C133.397 19.621 133.089 19.3865 132.704 19.2115C132.319 19.0365 131.853 18.949 131.307 18.949C130.726 18.949 130.194 19.0785 129.711 19.3375C129.235 19.5895 128.854 19.971 128.567 20.482C128.287 20.993 128.147 21.63 128.147 22.393C128.147 23.149 128.287 23.793 128.567 24.325C128.847 24.85 129.225 25.2525 129.701 25.5325C130.184 25.8055 130.719 25.942 131.307 25.942C131.93 25.942 132.438 25.8475 132.83 25.6585C133.229 25.4625 133.53 25.2035 133.733 24.8815C133.936 24.5525 134.051 24.1955 134.079 23.8105H136.83C136.83 24.3285 136.711 24.85 136.473 25.375C136.235 25.893 135.885 26.369 135.423 26.803C134.961 27.237 134.387 27.5835 133.701 27.8425C133.022 28.1015 132.235 28.231 131.339 28.231ZM144.116 28.21C143.717 28.21 143.311 28.1715 142.898 28.0945C142.485 28.0175 142.107 27.874 141.764 27.664C141.421 27.454 141.145 27.146 140.935 26.74C140.725 26.334 140.62 25.7985 140.62 25.1335C140.62 24.9795 140.62 24.8255 140.62 24.6715C140.62 24.5105 140.62 24.346 140.62 24.178V19.054H137.984V16.849H139.055C139.419 16.849 139.706 16.835 139.916 16.807C140.126 16.772 140.28 16.695 140.378 16.576C140.476 16.457 140.539 16.2715 140.567 16.0195C140.602 15.7605 140.62 15.4035 140.62 14.9485V13.174H143.392V16.849H146.71V19.054H143.392V23.527C143.392 23.66 143.392 23.793 143.392 23.926C143.392 24.052 143.392 24.1745 143.392 24.2935C143.392 24.8115 143.455 25.228 143.581 25.543C143.707 25.858 144.004 26.0155 144.473 26.0155C144.697 26.0155 144.907 25.9945 145.103 25.9525C145.306 25.9105 145.457 25.8685 145.555 25.8265V27.9895C145.422 28.0385 145.229 28.0875 144.977 28.1365C144.725 28.1855 144.438 28.21 144.116 28.21ZM150.349 28.294C149.915 28.294 149.548 28.1435 149.247 27.8425C148.946 27.5415 148.795 27.174 148.795 26.74C148.795 26.313 148.946 25.949 149.247 25.648C149.548 25.34 149.915 25.186 150.349 25.186C150.776 25.186 151.14 25.34 151.441 25.648C151.749 25.949 151.903 26.313 151.903 26.74C151.903 27.174 151.749 27.5415 151.441 27.8425C151.14 28.1435 150.776 28.294 150.349 28.294ZM152.99 32.7565C152.787 32.7565 152.595 32.7495 152.413 32.7355C152.231 32.7285 152.08 32.7145 151.961 32.6935V30.6355C152.073 30.6635 152.224 30.688 152.413 30.709C152.595 30.73 152.787 30.7405 152.99 30.7405C153.382 30.7405 153.694 30.6845 153.925 30.5725C154.156 30.4605 154.327 30.3135 154.439 30.1315C154.558 29.9495 154.639 29.75 154.681 29.533C154.723 29.323 154.744 29.113 154.744 28.903V16.849H157.505V28.987C157.505 29.449 157.449 29.9005 157.337 30.3415C157.232 30.7895 157.026 31.1955 156.718 31.5595C156.417 31.9235 155.965 32.214 155.363 32.431C154.768 32.648 153.977 32.7565 152.99 32.7565ZM156.161 14.791C155.713 14.791 155.321 14.672 154.985 14.434C154.656 14.189 154.492 13.8495 154.492 13.4155C154.492 12.9885 154.656 12.656 154.985 12.418C155.321 12.18 155.713 12.061 156.161 12.061C156.609 12.061 156.998 12.18 157.327 12.418C157.656 12.656 157.82 12.9885 157.82 13.4155C157.82 13.8495 157.656 14.189 157.327 14.434C156.998 14.672 156.609 14.791 156.161 14.791ZM164.764 28.231C164.099 28.231 163.465 28.1575 162.863 28.0105C162.268 27.8635 161.736 27.643 161.267 27.349C160.805 27.055 160.438 26.691 160.165 26.257C159.899 25.816 159.766 25.3085 159.766 24.7345C159.766 24.6925 159.766 24.6505 159.766 24.6085C159.766 24.5665 159.766 24.528 159.766 24.493H162.517C162.517 24.528 162.517 24.5595 162.517 24.5875C162.517 24.6085 162.517 24.64 162.517 24.682C162.517 25.137 162.723 25.48 163.136 25.711C163.556 25.935 164.127 26.047 164.848 26.047C165.24 26.047 165.607 26.005 165.95 25.921C166.3 25.837 166.58 25.7075 166.79 25.5325C167.007 25.3575 167.116 25.1335 167.116 24.8605C167.116 24.4195 166.888 24.1045 166.433 23.9155C165.985 23.7265 165.278 23.555 164.312 23.401C163.78 23.31 163.255 23.1875 162.737 23.0335C162.219 22.8795 161.747 22.673 161.32 22.414C160.9 22.155 160.56 21.833 160.301 21.448C160.049 21.063 159.923 20.594 159.923 20.041C159.923 19.306 160.14 18.69 160.574 18.193C161.015 17.689 161.603 17.3075 162.338 17.0485C163.08 16.7895 163.896 16.66 164.785 16.66C165.639 16.66 166.433 16.8 167.168 17.08C167.903 17.36 168.495 17.7625 168.943 18.2875C169.398 18.8125 169.625 19.446 169.625 20.188C169.625 20.216 169.625 20.2475 169.625 20.2825C169.625 20.3105 169.625 20.335 169.625 20.356H166.895C166.895 20.335 166.895 20.314 166.895 20.293C166.895 20.272 166.895 20.2475 166.895 20.2195C166.895 19.8975 166.794 19.635 166.591 19.432C166.388 19.229 166.125 19.0785 165.803 18.9805C165.481 18.8825 165.142 18.8335 164.785 18.8335C164.47 18.8335 164.144 18.8685 163.808 18.9385C163.472 19.0015 163.192 19.117 162.968 19.285C162.744 19.446 162.632 19.6735 162.632 19.9675C162.632 20.2475 162.748 20.475 162.979 20.65C163.21 20.825 163.532 20.972 163.945 21.091C164.358 21.203 164.834 21.3045 165.373 21.3955C165.884 21.4795 166.398 21.595 166.916 21.742C167.441 21.889 167.921 22.085 168.355 22.33C168.789 22.575 169.139 22.897 169.405 23.296C169.678 23.688 169.814 24.1745 169.814 24.7555C169.814 25.3715 169.674 25.8965 169.394 26.3305C169.114 26.7645 168.733 27.125 168.25 27.412C167.774 27.692 167.235 27.8985 166.633 28.0315C166.031 28.1645 165.408 28.231 164.764 28.231Z" fill="black"/>
</g>
<defs>
<clipPath id="clip0_9715_16">
<rect width="175" height="40" fill="white"/>
</clipPath>
</defs>
</svg>
