<svg width="156" height="40" viewBox="0 0 156 40" fill="none" xmlns="http://www.w3.org/2000/svg">
<g clip-path="url(#clip0_9715_25)">
<path d="M3 20C3 10.6112 10.6112 3 20 3C29.3888 3 37 10.6112 37 20C37 29.3888 29.3888 37 20 37C10.6112 37 3 29.3888 3 20Z" fill="#39D7BA"/>
<path fill-rule="evenodd" clip-rule="evenodd" d="M13.4619 12.04C13.2364 12.0361 13.0112 12.0609 12.7919 12.114V12.152H12.8289C12.9589 12.419 13.1889 12.592 13.3499 12.822L13.7219 13.603L13.7599 13.566C13.9899 13.404 14.0959 13.144 14.0949 12.747C14.0019 12.65 13.9879 12.528 13.9079 12.412C13.8019 12.258 13.5959 12.17 13.4619 12.04ZM31.4789 31.137C31.6539 31.266 31.7719 31.466 31.9999 31.547V31.509C31.8799 31.357 31.8499 31.147 31.7399 30.988C31.5779 30.8274 31.4165 30.6661 31.2559 30.504C30.77 29.8755 30.1926 29.3233 29.5429 28.866C29.0349 28.501 27.8939 28.007 27.6819 27.415L27.6439 27.377C28.0049 27.337 28.4279 27.206 28.7609 27.117C29.3209 26.967 29.8209 27.005 30.3989 26.857C30.6599 26.781 30.9199 26.707 31.1809 26.633V26.483C30.8889 26.183 30.6809 25.787 30.3619 25.516C29.5279 24.806 28.6189 24.096 27.6819 23.506C27.1619 23.177 26.5199 22.965 25.9689 22.686C25.7839 22.593 25.4589 22.544 25.3369 22.389C25.0469 22.019 24.8899 21.552 24.6669 21.123C24.1999 20.223 23.7399 19.24 23.3269 18.293C23.0439 17.648 22.8599 17.012 22.5069 16.433C20.8169 13.653 18.9969 11.976 16.1789 10.327C15.5789 9.97701 14.8569 9.83801 14.0949 9.65701L12.8659 9.58301C12.6159 9.47801 12.3559 9.17301 12.1219 9.02401C11.1879 8.43401 8.79194 7.15101 8.10194 8.83801C7.66494 9.90301 8.75394 10.942 9.14394 11.481C9.41694 11.86 9.76694 12.284 9.96294 12.71C10.0909 12.99 10.1129 13.27 10.2229 13.566C10.4939 14.296 10.7289 15.088 11.0789 15.762C11.2569 16.103 11.4519 16.462 11.6749 16.767C11.8129 16.954 12.0469 17.037 12.0839 17.326C11.8539 17.647 11.8419 18.146 11.7129 18.554C11.1309 20.389 11.3499 22.669 12.1969 24.027C12.4559 24.443 13.0669 25.337 13.9079 24.994C14.6439 24.694 14.4799 23.766 14.6899 22.947C14.7369 22.761 14.7089 22.624 14.8019 22.5V22.537L15.4719 23.877C15.9679 24.676 16.8479 25.511 17.5939 26.074C17.9799 26.366 18.2839 26.871 18.7849 27.042V27.004H18.7479C18.6499 26.854 18.4979 26.791 18.3759 26.669C18.0663 26.3684 17.7798 26.0448 17.5189 25.701C16.8409 24.781 16.2419 23.773 15.6959 22.724C15.4349 22.222 15.2079 21.67 14.9879 21.16C14.9029 20.963 14.9039 20.666 14.7279 20.564C14.4869 20.938 14.1319 21.24 13.9459 21.681C13.6479 22.386 13.6089 23.246 13.4989 24.138C13.4339 24.161 13.4629 24.145 13.4239 24.175C12.9059 24.05 12.7239 23.516 12.5309 23.058C12.0439 21.901 11.9529 20.036 12.3819 18.703C12.4929 18.358 12.9949 17.272 12.7919 16.953C12.6939 16.635 12.3749 16.452 12.1959 16.209C11.9619 15.8828 11.7622 15.5333 11.5999 15.166C11.2019 14.264 11.0149 13.25 10.5949 12.337C10.3949 11.901 10.0549 11.46 9.77594 11.072C9.46794 10.642 9.12194 10.326 8.88294 9.80601C8.79794 9.62101 8.68194 9.32601 8.80794 9.13601C8.84794 9.00801 8.90494 8.95401 9.03194 8.91301C9.24794 8.74601 9.84894 8.96801 10.0739 9.06101C10.6709 9.30901 11.1689 9.54501 11.6739 9.88101C11.9169 10.041 12.1629 10.353 12.4559 10.439H12.7909C13.3159 10.559 13.9029 10.476 14.3919 10.625C15.2569 10.888 16.0319 11.297 16.7369 11.742C18.8829 13.097 20.6369 15.025 21.8369 17.326C22.0299 17.696 22.1139 18.05 22.2839 18.443C22.6269 19.235 23.0589 20.05 23.3999 20.825C23.7399 21.598 24.0729 22.378 24.5539 23.021C24.8069 23.359 25.7849 23.541 26.2299 23.729C26.5409 23.86 27.0509 23.998 27.3459 24.175C27.9099 24.515 28.4559 24.92 28.9839 25.292C29.2479 25.479 30.0609 25.887 30.1009 26.222C28.7909 26.188 27.7909 26.309 26.9369 26.67C26.6939 26.772 26.3069 26.775 26.2669 27.079C26.3999 27.219 26.4209 27.429 26.5269 27.6C26.7309 27.93 27.0759 28.373 27.3829 28.605C27.7199 28.859 28.0659 29.13 28.4259 29.35C29.0659 29.74 29.7819 29.964 30.3979 30.355C30.7629 30.586 31.1239 30.876 31.4779 31.137H31.4789Z" fill="white"/>
<path d="M58.3375 12.5125H63.0415V28H60.406V14.2765L60.469 14.2975L57.1405 28H53.4445L50.074 14.287L50.137 14.2555V28H47.5015V12.5125H52.2055L55.345 26.488H55.1665L58.3375 12.5125ZM66.6496 32.788C66.3206 32.788 66.0266 32.7705 65.7676 32.7355C65.5086 32.7075 65.3476 32.6795 65.2846 32.6515V30.499C65.3756 30.541 65.5296 30.5725 65.7466 30.5935C65.9706 30.6215 66.2016 30.6355 66.4396 30.6355C66.8246 30.6355 67.1571 30.5585 67.4371 30.4045C67.7241 30.2505 67.9691 30.037 68.1721 29.764C68.3751 29.498 68.5361 29.1865 68.6551 28.8295L68.8966 28.126L65.0536 16.849H67.9411L70.5766 26.152H70.2406L72.8131 16.849H75.6481L71.7421 28.6825C71.4691 29.5015 71.1366 30.219 70.7446 30.835C70.3596 31.451 69.8451 31.9305 69.2011 32.2735C68.5571 32.6165 67.7066 32.788 66.6496 32.788ZM82.4489 28.231C81.3499 28.231 80.3909 28.056 79.5719 27.706C78.7529 27.356 78.1159 26.831 77.6609 26.131C77.2059 25.424 76.9784 24.549 76.9784 23.506C76.9784 23.387 76.9784 23.282 76.9784 23.191C76.9784 23.093 76.9784 22.9845 76.9784 22.8655H79.7399C79.7399 22.9705 79.7399 23.0685 79.7399 23.1595C79.7399 23.2435 79.7399 23.3415 79.7399 23.4535C79.7399 24.2935 79.9674 24.9235 80.4224 25.3435C80.8844 25.7565 81.5634 25.963 82.4594 25.963C83.3624 25.963 84.0519 25.8125 84.5279 25.5115C85.0109 25.2105 85.2524 24.7275 85.2524 24.0625C85.2524 23.5795 85.0879 23.17 84.7589 22.834C84.4369 22.491 83.9924 22.19 83.4254 21.931C82.8584 21.672 82.2144 21.4305 81.4934 21.2065C80.6814 20.9545 79.9429 20.629 79.2779 20.23C78.6129 19.831 78.0809 19.327 77.6819 18.718C77.2829 18.109 77.0834 17.36 77.0834 16.471C77.0834 15.582 77.3109 14.826 77.7659 14.203C78.2279 13.58 78.8579 13.1075 79.6559 12.7855C80.4609 12.4565 81.3744 12.292 82.3964 12.292C83.4674 12.292 84.4089 12.46 85.2209 12.796C86.0399 13.132 86.6804 13.6325 87.1424 14.2975C87.6044 14.9625 87.8354 15.792 87.8354 16.786C87.8354 16.919 87.8354 17.0345 87.8354 17.1325C87.8354 17.2305 87.8354 17.3425 87.8354 17.4685H85.0634C85.0634 17.3775 85.0634 17.2865 85.0634 17.1955C85.0634 17.0975 85.0634 17.003 85.0634 16.912C85.0634 16.114 84.8464 15.526 84.4124 15.148C83.9784 14.763 83.3204 14.5705 82.4384 14.5705C81.5774 14.5705 80.9159 14.721 80.4539 15.022C79.9919 15.323 79.7609 15.8025 79.7609 16.4605C79.7609 16.9505 79.9184 17.36 80.2334 17.689C80.5484 18.018 80.9789 18.305 81.5249 18.55C82.0779 18.788 82.7044 19.0295 83.4044 19.2745C84.3354 19.5825 85.1404 19.9325 85.8194 20.3245C86.4984 20.7095 87.0234 21.1925 87.3944 21.7735C87.7654 22.3475 87.9509 23.079 87.9509 23.968C87.9509 24.878 87.7199 25.6515 87.2579 26.2885C86.8029 26.9185 86.1624 27.4015 85.3364 27.7375C84.5174 28.0665 83.5549 28.231 82.4489 28.231ZM95.2868 27.895H97.6493C97.6493 28.266 97.7683 28.574 98.0063 28.819C98.2513 29.064 98.5418 29.26 98.8778 29.407C99.2208 29.561 99.5428 29.673 99.8438 29.743C100.145 29.82 100.358 29.8725 100.484 29.9005L99.6863 31.759C99.5673 31.745 99.3433 31.7065 99.0143 31.6435C98.6853 31.5805 98.3108 31.4685 97.8908 31.3075C97.4708 31.1535 97.0613 30.933 96.6623 30.646C96.2703 30.366 95.9413 29.9985 95.6753 29.5435C95.4163 29.0955 95.2868 28.546 95.2868 27.895ZM96.5153 28.231C95.5773 28.231 94.7023 28.056 93.8903 27.706C93.0783 27.356 92.3643 26.8415 91.7483 26.1625C91.1393 25.4765 90.6633 24.64 90.3203 23.653C89.9843 22.659 89.8163 21.5215 89.8163 20.2405C89.8163 18.9595 89.9843 17.8255 90.3203 16.8385C90.6633 15.8515 91.1393 15.022 91.7483 14.35C92.3573 13.671 93.0678 13.16 93.8798 12.817C94.6988 12.467 95.5773 12.292 96.5153 12.292C97.4673 12.292 98.3493 12.467 99.1613 12.817C99.9803 13.16 100.694 13.671 101.303 14.35C101.912 15.022 102.385 15.8515 102.721 16.8385C103.064 17.8255 103.235 18.9595 103.235 20.2405C103.235 21.5215 103.064 22.659 102.721 23.653C102.378 24.64 101.898 25.4765 101.282 26.1625C100.673 26.8415 99.9628 27.356 99.1508 27.706C98.3388 28.056 97.4603 28.231 96.5153 28.231ZM96.5153 25.9525C97.2433 25.9525 97.9013 25.7565 98.4893 25.3645C99.0773 24.9655 99.5428 24.346 99.8858 23.506C100.236 22.666 100.411 21.5775 100.411 20.2405C100.411 18.8965 100.236 17.8115 99.8858 16.9855C99.5358 16.1525 99.0668 15.5435 98.4788 15.1585C97.8908 14.7735 97.2363 14.581 96.5153 14.581C95.8083 14.581 95.1573 14.7735 94.5623 15.1585C93.9743 15.5435 93.5018 16.1525 93.1448 16.9855C92.7948 17.8115 92.6198 18.8965 92.6198 20.2405C92.6198 21.5845 92.7948 22.6765 93.1448 23.5165C93.5018 24.3565 93.9743 24.9725 94.5623 25.3645C95.1573 25.7565 95.8083 25.9525 96.5153 25.9525ZM105.515 28V12.5125H108.287V27.1705L107.037 25.711H114.156V28H105.515Z" fill="black"/>
</g>
<defs>
<clipPath id="clip0_9715_25">
<rect width="156" height="40" fill="white"/>
</clipPath>
</defs>
</svg>
