<svg width="156" height="40" viewBox="0 0 156 40" fill="none" xmlns="http://www.w3.org/2000/svg">
<g clip-path="url(#clip0_9715_19)">
<path d="M3 20C3 10.6112 10.6112 3 20 3C29.3888 3 37 10.6112 37 20C37 29.3888 29.3888 37 20 37C10.6112 37 3 29.3888 3 20Z" fill="#39D7BA"/>
<path fill-rule="evenodd" clip-rule="evenodd" d="M19.9998 22V30C17.5078 29.9985 15.1061 29.0666 13.2653 27.3868C11.4245 25.7071 10.2772 23.4005 10.0482 20.919C9.81919 18.4375 10.525 15.9599 12.0273 13.9716C13.5296 11.9833 15.7202 10.6276 18.1698 10.17L19.9998 12H24.9998C26.3242 12 27.5944 12.5255 28.5318 13.461C29.4692 14.3965 29.9972 15.6657 29.9998 16.99V26.01C29.9972 27.0692 29.5746 28.084 28.8247 28.832C28.0749 29.58 27.059 30 25.9998 30V28C26.5303 28 27.039 27.7893 27.414 27.4143C27.7891 27.0392 27.9998 26.5305 27.9998 26C27.9998 25.4696 27.7891 24.9609 27.414 24.5858C27.039 24.2108 26.5303 24 25.9998 24H21.9998L19.9998 22ZM25.4998 19C25.8977 19 26.2792 18.842 26.5605 18.5607C26.8418 18.2794 26.9998 17.8979 26.9998 17.5C26.9998 17.1022 26.8418 16.7207 26.5605 16.4394C26.2792 16.1581 25.8977 16 25.4998 16C25.102 16 24.7205 16.1581 24.4392 16.4394C24.1579 16.7207 23.9998 17.1022 23.9998 17.5C23.9998 17.8979 24.1579 18.2794 24.4392 18.5607C24.7205 18.842 25.102 19 25.4998 19Z" fill="white"/>
<path d="M50.1265 28H47.3545V12.5125H52.3315C53.5215 12.5125 54.526 12.74 55.345 13.195C56.171 13.643 56.7975 14.2555 57.2245 15.0325C57.6585 15.8025 57.8755 16.6635 57.8755 17.6155C57.8755 18.5745 57.6585 19.453 57.2245 20.251C56.7905 21.049 56.157 21.6895 55.324 22.1725C54.498 22.6485 53.5005 22.8865 52.3315 22.8865H50.1265V28ZM50.1265 22.0045L48.877 20.692H52.027C52.671 20.692 53.2205 20.5695 53.6755 20.3245C54.1305 20.0725 54.477 19.719 54.715 19.264C54.96 18.802 55.0825 18.2525 55.0825 17.6155C55.0825 16.9785 54.9635 16.4465 54.7255 16.0195C54.4945 15.5855 54.1515 15.26 53.6965 15.043C53.2415 14.826 52.685 14.7175 52.027 14.7175H48.877L50.1265 13.342V22.0045ZM71.6203 12.5125V28H68.8483V20.44L70.0978 21.385H61.5508L62.8003 20.461V28H60.0283V12.5125H62.8003V20.146L61.5508 19.18H70.0978L68.8483 20.1355V12.5125H71.6203ZM77.0943 28H74.3223V12.5125H79.2993C80.4893 12.5125 81.4938 12.74 82.3128 13.195C83.1388 13.643 83.7653 14.2555 84.1923 15.0325C84.6263 15.8025 84.8433 16.6635 84.8433 17.6155C84.8433 18.5745 84.6263 19.453 84.1923 20.251C83.7583 21.049 83.1248 21.6895 82.2918 22.1725C81.4658 22.6485 80.4683 22.8865 79.2993 22.8865H77.0943V28ZM77.0943 22.0045L75.8448 20.692H78.9948C79.6388 20.692 80.1883 20.5695 80.6433 20.3245C81.0983 20.0725 81.4448 19.719 81.6828 19.264C81.9278 18.802 82.0503 18.2525 82.0503 17.6155C82.0503 16.9785 81.9313 16.4465 81.6933 16.0195C81.4623 15.5855 81.1193 15.26 80.6643 15.043C80.2093 14.826 79.6528 14.7175 78.9948 14.7175H75.8448L77.0943 13.342V22.0045ZM85.2242 31.213L84.8357 30.52C85.1577 30.373 85.4692 30.156 85.7702 29.869C86.0712 29.589 86.3232 29.2845 86.5262 28.9555C86.7292 28.6335 86.8307 28.343 86.8307 28.084C86.8307 27.993 86.8167 27.902 86.7887 27.811C86.7607 27.72 86.7257 27.6395 86.6837 27.5695H87.3452C87.2612 27.7795 87.1107 27.9545 86.8937 28.0945C86.6837 28.2345 86.4212 28.3045 86.1062 28.3045C85.7072 28.3045 85.3537 28.175 85.0457 27.916C84.7377 27.65 84.5837 27.272 84.5837 26.782C84.5837 26.32 84.7447 25.942 85.0667 25.648C85.3887 25.347 85.8017 25.1965 86.3057 25.1965C86.8587 25.1965 87.2962 25.382 87.6182 25.753C87.9472 26.117 88.1117 26.5965 88.1117 27.1915C88.1117 27.7795 87.9682 28.343 87.6812 28.882C87.3942 29.421 87.0302 29.89 86.5892 30.289C86.1482 30.695 85.6932 31.003 85.2242 31.213ZM107.032 12.5125L102.591 22.645V28H99.8186V22.645L95.4086 12.5125H98.3381L101.772 21.1855H100.659L104.082 12.5125H107.032ZM108.817 28V12.5125H111.547V28H108.817ZM114.292 28V12.5125H117.022V28H114.292ZM119.233 22.9075V21.196H126.761V22.9075H119.233ZM129.246 28V25.7005C129.302 25.4975 129.477 25.228 129.771 24.892C130.072 24.549 130.436 24.1745 130.863 23.7685C131.297 23.3625 131.748 22.953 132.217 22.54C132.686 22.127 133.124 21.7455 133.53 21.3955C134.02 20.9685 134.499 20.524 134.968 20.062C135.437 19.6 135.826 19.1135 136.134 18.6025C136.442 18.0915 136.596 17.549 136.596 16.975C136.596 16.212 136.414 15.6135 136.05 15.1795C135.686 14.7385 135.129 14.518 134.38 14.518C133.771 14.518 133.288 14.651 132.931 14.917C132.574 15.176 132.319 15.54 132.165 16.009C132.011 16.478 131.934 17.024 131.934 17.647H129.151C129.151 16.562 129.351 15.6205 129.75 14.8225C130.149 14.0175 130.74 13.3945 131.524 12.9535C132.308 12.5125 133.271 12.292 134.412 12.292C135.511 12.292 136.428 12.4985 137.163 12.9115C137.898 13.3175 138.447 13.8775 138.811 14.5915C139.182 15.2985 139.368 16.1 139.368 16.996C139.368 17.605 139.252 18.179 139.021 18.718C138.797 19.25 138.503 19.747 138.139 20.209C137.775 20.671 137.387 21.0945 136.974 21.4795C136.561 21.8645 136.165 22.2145 135.787 22.5295C135.171 23.0335 134.622 23.499 134.139 23.926C133.663 24.346 133.274 24.7135 132.973 25.0285C132.679 25.3435 132.497 25.6025 132.427 25.8055H139.347V28H129.246Z" fill="black"/>
</g>
<defs>
<clipPath id="clip0_9715_19">
<rect width="156" height="40" fill="white"/>
</clipPath>
</defs>
</svg>
